<svg xmlns="http://www.w3.org/2000/svg" width="21.225" height="21.316" viewBox="0 0 21.225 21.316">
  <g id="icons8-whatsapp" transform="translate(-3.868 -4)">
    <path id="Path_167" data-name="Path 167" d="M14.522,4.529a10.042,10.042,0,0,1,0,20.083h0a10.03,10.03,0,0,1-4.8-1.222L4.4,24.786l1.425-5.2a10.043,10.043,0,0,1,8.7-15.056m0,20.083h0m0,0h0M14.522,4h0A10.573,10.573,0,0,0,5.253,19.655L3.886,24.647a.529.529,0,0,0,.645.651l5.123-1.343A10.571,10.571,0,1,0,14.522,4Z" fill="#21275b" fill-rule="evenodd"/>
    <path id="Subtraction_1" data-name="Subtraction 1" d="M11198.213,20356.693h0a8.323,8.323,0,0,1-4.246-1.164l-.306-.18-3.157.828.843-3.08-.2-.312a8.348,8.348,0,1,1,7.07,3.908Zm-3.556-12.986a.923.923,0,0,0-.669.316l-.028.029-.018.02a2.76,2.76,0,0,0-.833,2.041,4.817,4.817,0,0,0,1.026,2.6c.007.01.019.025.035.051l.012.018a9.969,9.969,0,0,0,4.24,3.717,7.007,7.007,0,0,0,2.492.67,3.014,3.014,0,0,0,.384-.025l.023,0a.252.252,0,0,0,.038,0l.071-.008a2.514,2.514,0,0,0,1.7-1.191,2.067,2.067,0,0,0,.143-1.2.773.773,0,0,0-.32-.213l-.16-.078c-.227-.113-1.474-.727-1.711-.816a.822.822,0,0,0-.269-.062.351.351,0,0,0-.3.189c-.162.24-.629.8-.792.98a.35.35,0,0,1-.273.146.629.629,0,0,1-.272-.08c-.04-.02-.095-.045-.169-.078a6.489,6.489,0,0,1-1.85-1.168,7.375,7.375,0,0,1-1.395-1.736c-.153-.258-.006-.4.112-.512.066-.066.142-.158.215-.248l.019-.021c.039-.051.085-.105.14-.17a1.363,1.363,0,0,0,.218-.35l.006-.012.026-.057a.448.448,0,0,0-.021-.439c-.022-.047-.106-.254-.2-.5l-.033-.082c-.179-.439-.4-.988-.534-1.283-.19-.418-.391-.424-.566-.43C11194.994,20343.707,11194.823,20343.707,11194.657,20343.707Z" transform="translate(-11183.691 -20333.777)" fill="#1c1d39"/>
  </g>
</svg>
