<svg id="facebook" xmlns="http://www.w3.org/2000/svg" width="14.912" height="14.912" viewBox="0 0 14.912 14.912">
  <path id="BG_111" data-name="BG 111" d="M0,0H14.912V14.912H0Z" fill="none" opacity="0.58"/>
  <path id="Vector" d="M12.427,8.817a3.316,3.316,0,0,1-3.61,3.61H8.077a.623.623,0,0,1-.621-.621V8.22a.31.31,0,0,1,.3-.311l1.094-.019a.2.2,0,0,0,.18-.155l.217-1.187a.188.188,0,0,0-.186-.217L7.742,6.35a.316.316,0,0,1-.317-.3L7.4,4.523a.187.187,0,0,1,.186-.186l1.491-.025a.183.183,0,0,0,.186-.186L9.239,2.634a.183.183,0,0,0-.186-.186l-1.678.025a1.862,1.862,0,0,0-1.833,1.9l.031,1.709a.308.308,0,0,1-.3.317l-.746.012a.183.183,0,0,0-.186.186l.019,1.181a.183.183,0,0,0,.186.186l.746-.012a.316.316,0,0,1,.317.3l.056,3.542a.622.622,0,0,1-.621.634H3.61A3.318,3.318,0,0,1,0,8.811V3.61A3.316,3.316,0,0,1,3.61,0H8.817a3.316,3.316,0,0,1,3.61,3.61V8.817Z" transform="translate(1.243 1.243)" fill="#fff"/>
  <path id="Vector-2" data-name="Vector" d="M0,0H14.912V14.912H0Z" fill="none" opacity="0"/>
</svg>
