<svg id="instagram_9_" data-name="instagram (9)" xmlns="http://www.w3.org/2000/svg" width="10.977" height="10.977" viewBox="0 0 10.977 10.977">
  <path id="Path_761" data-name="Path 761" d="M8.006,0H2.971A2.975,2.975,0,0,0,0,2.971V8.006a2.975,2.975,0,0,0,2.971,2.971H8.006a2.975,2.975,0,0,0,2.971-2.971V2.971A2.975,2.975,0,0,0,8.006,0ZM5.488,8.49a3,3,0,1,1,3-3A3,3,0,0,1,5.488,8.49Zm3.073-5.3a.887.887,0,1,1,.887-.887A.888.888,0,0,1,8.562,3.195Zm0,0" fill="#fff"/>
  <path id="Path_762" data-name="Path 762" d="M147.724,146.02a1.7,1.7,0,1,0,1.7,1.7A1.707,1.707,0,0,0,147.724,146.02Zm0,0" transform="translate(-142.236 -142.236)" fill="#fff"/>
  <path id="Path_763" data-name="Path 763" d="M388.168,96.3a.176.176,0,1,0,.176.176A.176.176,0,0,0,388.168,96.3Zm0,0" transform="translate(-379.567 -94.21)" fill="#fff"/>
</svg>
