<svg id="Screen_Shot_2021-10-14_at_1.49.49_PM" data-name="Screen Shot 2021-10-14 at 1.49.49 PM" xmlns="http://www.w3.org/2000/svg" width="10.977" height="10.977" viewBox="0 0 10.977 10.977">
  <path id="Path_6513" data-name="Path 6513" d="M23.088,149.157h4.385a1.25,1.25,0,0,1,.533.1.957.957,0,0,1,.572.764,1.535,1.535,0,0,1,.015.231q0,4.117,0,8.233c0,.237,0,.473-.01.71a.985.985,0,0,1-.63.873,1.474,1.474,0,0,1-.436.062c-.089,0-.178.007-.268.007H18.687a1.065,1.065,0,0,1-.688-.217,1,1,0,0,1-.377-.765c0-.037,0-.075,0-.113v-7.162c0-.383,0-.766,0-1.149,0-.19,0-.381.005-.572a1,1,0,0,1,.633-.923,1.5,1.5,0,0,1,.478-.064c.2-.006.409-.006.613-.006h3.74Zm.574,4.676-.007-.009v-.34a.278.278,0,0,0-.3-.305c-.333,0-.666,0-1,0-.086,0-.169,0-.252,0a.272.272,0,0,0-.28.215.55.55,0,0,0-.013.129v5.123a.29.29,0,0,0,.247.3.719.719,0,0,0,.118.008h1.1a.9.9,0,0,0,.113,0,.266.266,0,0,0,.258-.23.6.6,0,0,0,.01-.118q0-1.329,0-2.658a1.635,1.635,0,0,1,.185-.752.855.855,0,0,1,.774-.51.825.825,0,0,1,.871.6,2.078,2.078,0,0,1,.09.665q0,1.254,0,2.509c0,.067,0,.134,0,.2a.285.285,0,0,0,.292.291c.028,0,.055,0,.082,0h1.129a.989.989,0,0,0,.113-.006.279.279,0,0,0,.271-.267.985.985,0,0,0,.007-.118c0-.269,0-.539-.006-.808,0-.473,0-.945-.007-1.418,0-.326,0-.652-.015-.978a3.123,3.123,0,0,0-.277-1.227A1.666,1.666,0,0,0,26,153.162a2.906,2.906,0,0,0-1.327,0,1.6,1.6,0,0,0-.855.486C23.767,153.7,23.717,153.769,23.662,153.833Zm-4.474,2.229v2.586a.285.285,0,0,0,.238.289.648.648,0,0,0,.138.013h.83c.115,0,.23,0,.344-.006a.29.29,0,0,0,.28-.238.661.661,0,0,0,.014-.143v-4.925a1.694,1.694,0,0,0-.009-.174c-.018-.182-.1-.274-.282-.278q-.628-.014-1.257-.007a.277.277,0,0,0-.3.287v.062Q19.189,154.795,19.189,156.062Zm-.268-4.529a1.172,1.172,0,0,0,1.2,1.188,1.189,1.189,0,0,0,0-2.377A1.168,1.168,0,0,0,18.921,151.533Z" transform="translate(-17.62 -149.156)" fill="#fff"/>
</svg>
