<svg xmlns="http://www.w3.org/2000/svg" width="82.986" height="71.515" viewBox="0 0 82.986 71.515">
  <path id="MARAKEZ_LOGO_V" data-name="MARAKEZ LOGO V" d="M70.368,22.585c-.443,4.35-5.39,7.391-8.994,11.171l0-6.447c.141-4.589,5.265-7.706,8.99-11.611Zm-48.735-3.2h-.019C21.387,23.9,16.32,27,12.628,30.872l-.01-3.1.017-.583c.227-4.522,5.294-7.62,8.987-11.49l.011,3.683ZM33.827,33.708,33.819,34.8c0,4.7-5.218,7.5-9,11.458L24.81,34.081h.008c0-4.7,5.22-7.844,9-11.808l.01,11.435ZM21.666,37.82l-.008,1.265c0,4.7-5.22,7.844-9,11.808l-.044-12.345h.006c0-4.7,5.221-7.844,9-11.808ZM58.2,39.085H58.2c0,4.7-5.22,7.844-9,11.808l-.01-12.345H49.2c0-4.7,5.22-7.844,9-11.808l.011,12.345ZM46.059,8.014h-.006c0,2.89-1.751,4.992-4.147,7.261-.214.2-6.947,6.393-8.2,7.706L33.7,14.967H33.7c0-2.391,1.347-4.379,3.171-6.278C37.1,8.461,44.417,1.712,46.049,0Zm-.042,31.071h-.008c0,4.7-5.22,7.844-9,11.806L37,27.5h.006c0-4.7,5.22-7.844,9-11.806l.01,23.388ZM78.743,70.074h3.973v1.437H76.5l4.237-8.872H76.742V61.2h6.244l-4.243,8.872ZM7.3,61.2h1.25V71.511H7.121V64.346L4.277,69.223,1.432,64.374v7.137H0V61.2H1.238L4.27,66.41,7.3,61.2Zm34.565,6.577,1.4-4.285,1.4,4.285Zm4.652,1.03-2.49-7.6H42.515L39.14,71.511h1.508l.751-2.3h3.748l.751,2.3h1.508l-.885-2.7m9.208-2.45c.906,1.474,3.035,4.984,3.591,5.155H57.792c-.724-.1-1.191-1.152-1.76-2-.017-.027-.854-1.4-1.462-2.4v4.4H53.136V61.205H54.57v4.417l2.664-4.417h1.812L55.732,66.36ZM29.712,62.593h1.533a1.911,1.911,0,0,1,2.179,2.135v.078A1.945,1.945,0,0,1,31.245,66.9H29.712v-4.3Zm2.565,5.445.078-.019a3.25,3.25,0,0,0,2.488-3.2V64.8c0-2.309-1.346-3.6-3.438-3.6H28.281V71.513h1.432V68.271H30.8c.394.648.734,1.21.753,1.238.57.852,1.036,1.9,1.76,2h1.529c-.533-.162-1.766-2.171-2.567-3.475M65.037,61.2h5.732v1.389h-4.3v3.1H69.6v1.271H66.469v3.157h4.3v1.389H65.037V61.2ZM17.016,67.778l1.4-4.285,1.4,4.285ZM17.66,61.2,14.285,71.511h1.508l.751-2.3h3.748l.751,2.3h1.508L19.175,61.2H17.658Z" fill="#21275b"/>
</svg>
